<svg width="400" height="400" viewBox="0 0 400 400" fill="none" xmlns="http://www.w3.org/2000/svg">
  <rect width="400" height="400" rx="200" fill="#3B82F6" fill-opacity="0.1"/>
  <path d="M200 120C162.386 120 132 150.386 132 188C132 225.614 162.386 256 200 256C237.614 256 268 225.614 268 188C268 150.386 237.614 120 200 120Z" fill="#3B82F6" fill-opacity="0.2"/>
  <path d="M200 256C150 256 100 300 100 350C100 350 100 400 200 400C300 400 300 350 300 350C300 300 250 256 200 256Z" fill="#3B82F6" fill-opacity="0.2"/>
  <path d="M200 0C89.543 0 0 89.543 0 200C0 310.457 89.543 400 200 400C310.457 400 400 310.457 400 200C400 89.543 310.457 0 200 0ZM200 360C110.579 360 40 289.421 40 200C40 110.579 110.579 40 200 40C289.421 40 360 110.579 360 200C360 289.421 289.421 360 200 360Z" fill="#3B82F6"/>
</svg>
