<svg width="600" height="400" viewBox="0 0 600 400" fill="none" xmlns="http://www.w3.org/2000/svg">
  <rect width="600" height="400" rx="12" fill="#F3F4F6"/>
  <rect x="30" y="30" width="540" height="60" rx="8" fill="#E5E7EB"/>
  <rect x="30" y="110" width="200" height="260" rx="8" fill="#E5E7EB"/>
  <rect x="250" y="110" width="320" height="180" rx="8" fill="#D1D5DB"/>
  <rect x="250" y="310" width="320" height="60" rx="8" fill="#E5E7EB"/>
  <rect x="30" y="90" width="200" height="20" rx="4" fill="#E5E7EB"/>
  <rect x="250" y="90" width="320" height="20" rx="4" fill="#E5E7EB"/>
  <rect x="30" y="50" width="80" height="20" rx="4" fill="#9CA3AF"/>
  <rect x="120" y="50" width="80" height="20" rx="4" fill="#9CA3AF"/>
  <rect x="210" y="50" width="80" height="20" rx="4" fill="#9CA3AF"/>
  <rect x="500" y="50" width="70" height="20" rx="4" fill="#9CA3AF"/>
  <rect x="130" y="200" width="100" height="100" rx="50" fill="#3B82F6" opacity="0.2"/>
  <path d="M180 210L170 200H150L140 210V230L150 240H170L180 230V210Z" fill="#3B82F6"/>
  <path d="M170 220L160 230H160.01L170 240L180 230H180.01L170 220Z" fill="white"/>
  <rect x="300" y="130" width="220" height="20" rx="4" fill="#9CA3AF"/>
  <rect x="300" y="170" width="180" height="12" rx="4" fill="#D1D5DB"/>
  <rect x="300" y="190" width="200" height="12" rx="4" fill="#D1D5DB"/>
  <rect x="300" y="210" width="160" height="12" rx="4" fill="#D1D5DB"/>
  <rect x="300" y="250" width="100" height="12" rx="4" fill="#9CA3AF"/>
  <rect x="300" y="270" width="140" height="12" rx="4" fill="#9CA3AF"/>
  <rect x="300" y="320" width="100" height="12" rx="4" fill="#9CA3AF"/>
  <rect x="410" y="320" width="100" height="12" rx="4" fill="#9CA3AF"/>
  <rect x="520" y="320" width="30" height="12" rx="4" fill="#9CA3AF"/>
  <rect x="300" y="350" width="100" height="12" rx="4" fill="#9CA3AF"/>
  <rect x="410" y="350" width="140" height="12" rx="4" fill="#9CA3AF"/>
  <rect x="300" y="290" width="60" height="12" rx="4" fill="#3B82F6"/>
  <rect x="370" y="290" width="80" height="12" rx="4" fill="#E5E7EB"/>
  <rect x="460" y="290" width="60" height="12" rx="4" fill="#E5E7EB"/>
</svg>
