<?xml version="1.0" encoding="UTF-8"?>
<svg width="800" height="600" viewBox="0 0 800 600" fill="none" xmlns="http://www.w3.org/2000/svg">
  <rect width="800" height="600" fill="#1F2937"/>
  <path d="M0 0H800V600H0V0Z" fill="#374151"/>
  <path d="M400 250C332.043 250 278 304.043 278 372C278 439.957 332.043 494 400 494C467.957 494 522 439.957 522 372C522 304.043 467.957 250 400 250Z" fill="#4B5563"/>
  <path d="M400 300C364.7 300 337 327.7 337 363C337 398.3 364.7 426 400 426C435.3 426 463 398.3 463 363C463 327.7 435.3 300 400 300Z" fill="#6B7280"/>
  <path d="M400 350C382.8 350 370 362.8 370 380C370 397.2 382.8 410 400 410C417.2 410 430 397.2 430 380C430 362.8 417.2 350 400 350Z" fill="#9CA3AF"/>
  <path d="M400 150C345.8 150 300 180.6 300 218V222H520V218C520 180.6 454.2 150 400 150Z" fill="#6B7280"/>
  <path d="M400 200C422.1 200 440 182.1 440 160C440 137.9 422.1 120 400 120C377.9 120 360 137.9 360 160C360 182.1 377.9 200 400 200Z" fill="#9CA3AF"/>
</svg>
